<svg width="25" height="25" viewBox="0 0 25 25" fill="none" xmlns="http://www.w3.org/2000/svg">
    <g clip-path="url(#9rgcjy6dza)">
        <path fill-rule="evenodd" clip-rule="evenodd" d="M2.083 12.5c0-5.753 4.664-10.417 10.417-10.417S22.917 6.747 22.917 12.5a10.38 10.38 0 0 1-2.737 7.037 9.97 9.97 0 0 0-15.36 0A10.38 10.38 0 0 1 2.083 12.5zm1.795 9.05a1.038 1.038 0 0 0 .836.73A12.448 12.448 0 0 0 12.5 25c2.944 0 5.65-1.018 7.786-2.72a1.038 1.038 0 0 0 .837-.73A12.465 12.465 0 0 0 25 12.5C25 5.596 19.404 0 12.5 0S0 5.596 0 12.5c0 3.56 1.489 6.773 3.878 9.05zm14.747-.623a10.37 10.37 0 0 1-6.125 1.99 10.37 10.37 0 0 1-6.125-1.99 7.887 7.887 0 0 1 12.25 0zM12.5 6.399a3.423 3.423 0 1 0 0 6.845 3.423 3.423 0 0 0 0-6.845zM6.994 9.82a5.506 5.506 0 1 1 11.012 0 5.506 5.506 0 0 1-11.012 0z" fill="#652AF5"/>
    </g>
    <defs>
        <clipPath id="9rgcjy6dza">
            <path fill="#fff" d="M0 0h25v25H0z"/>
        </clipPath>
    </defs>
</svg>
